# xmcd
#
# Track frame offsets:
#	182
#	11817
#	25170
#	36807
#	56482
#	67382
#	81695
#	94447
#	106100
#	120547
#	131885
#	144582
#
# Disc length: 2156 seconds
#
# Revision: 0
# Processed by: cddbd v1.4PL0 Copyright (c) Steve Scherf et al.
# Submitted via: audiograbber 1.80.04
#
DISCID=b2086a0c
DTITLE=FRED BONGUSTO - I GRANDI SUCCESSI ORIGINALI CD1
DYEAR=1900
DGENRE=
TTITLE0=AMORE FERMATI
TTITLE1=CHI CI SARA' DOPO DI TE
TTITLE2=DA COSA NASCE COSA
TTITLE3=DOCE DOCE
TTITLE4=FRIDA
TTITLE5=IL NOSTRO AMORE SEGRETO
TTITLE6=QUANDO MI DICI COSI'
TTITLE7=QUESTO NOSTRO GRANDE AMORE
TTITLE8=SE TI INNAMORERAI
TTITLE9=SPAGHETTI, POLLO, INSALATINA E UNA...
TTITLE10=UNA ROTONDA SUL MARE
TTITLE11=TRE SETTIMANE DA RACCONTARE
EXTD=
EXTT0=
EXTT1=
EXTT2=
EXTT3=
EXTT4=
EXTT5=
EXTT6=
EXTT7=
EXTT8=
EXTT9=
EXTT10=
EXTT11=
PLAYORDER=
